<svg width="137" height="176" viewBox="0 0 137 176" fill="none" xmlns="http://www.w3.org/2000/svg">
<rect x="0.5" y="0.5" width="136" height="175" rx="7.5" stroke="#F1F2F3"/>
<rect x="0.5" y="0.5" width="136" height="171" rx="7.5" stroke="#F1F2F3"/>
<rect x="0.5" y="0.5" width="136" height="167" rx="7.5" stroke="#F1F2F3"/>
<rect x="7" y="8" width="123" height="108" rx="8" fill="#2D81FF" fill-opacity="0.12"/>
<path d="M115.411 19.1131L116 19.8571L116.588 19.1131C117.665 17.7509 119.413 18.1365 120.029 19.3461C120.323 19.9222 120.389 20.766 119.814 21.8132C119.26 22.8225 118.105 24.0169 116 25.2376C113.894 24.0169 112.74 22.8225 112.186 21.8132C111.611 20.766 111.677 19.9223 111.971 19.3461C112.587 18.1364 114.334 17.751 115.411 19.1131Z" fill="#EB5849" stroke="#EB5849" stroke-width="1.5"/>
<path d="M91.9304 131H91.1544V126.28L90.0824 127.176L89.6264 126.64L91.2344 125.336H91.9304V131ZM96.0403 125.192C96.3763 125.192 96.6643 125.269 96.9043 125.424C97.1496 125.579 97.3496 125.792 97.5043 126.064C97.6643 126.331 97.7816 126.645 97.8563 127.008C97.9309 127.371 97.9683 127.757 97.9683 128.168C97.9683 128.584 97.9309 128.973 97.8563 129.336C97.7816 129.693 97.6643 130.008 97.5043 130.28C97.3496 130.547 97.1496 130.757 96.9043 130.912C96.6643 131.067 96.3763 131.144 96.0403 131.144C95.7043 131.144 95.4136 131.067 95.1683 130.912C94.9229 130.757 94.7203 130.547 94.5603 130.28C94.4056 130.008 94.2909 129.693 94.2163 129.336C94.1416 128.973 94.1043 128.584 94.1043 128.168C94.1043 127.757 94.1416 127.371 94.2163 127.008C94.2909 126.645 94.4056 126.331 94.5603 126.064C94.7203 125.792 94.9229 125.579 95.1683 125.424C95.4136 125.269 95.7043 125.192 96.0403 125.192ZM96.0403 125.84C95.8056 125.84 95.6136 125.917 95.4643 126.072C95.3149 126.221 95.1976 126.413 95.1123 126.648C95.0323 126.877 94.9763 127.128 94.9443 127.4C94.9123 127.672 94.8963 127.928 94.8963 128.168C94.8963 128.408 94.9123 128.664 94.9443 128.936C94.9763 129.208 95.0323 129.459 95.1123 129.688C95.1976 129.917 95.3149 130.109 95.4643 130.264C95.6136 130.413 95.8056 130.488 96.0403 130.488C96.2696 130.488 96.4563 130.413 96.6003 130.264C96.7496 130.109 96.8669 129.917 96.9523 129.688C97.0376 129.459 97.0963 129.208 97.1283 128.936C97.1603 128.664 97.1763 128.408 97.1763 128.168C97.1763 127.928 97.1603 127.672 97.1283 127.4C97.0963 127.128 97.0376 126.877 96.9523 126.648C96.8669 126.413 96.7496 126.221 96.6003 126.072C96.4563 125.917 96.2696 125.84 96.0403 125.84ZM100.798 125.192C101.134 125.192 101.422 125.269 101.662 125.424C101.907 125.579 102.107 125.792 102.262 126.064C102.422 126.331 102.539 126.645 102.614 127.008C102.689 127.371 102.726 127.757 102.726 128.168C102.726 128.584 102.689 128.973 102.614 129.336C102.539 129.693 102.422 130.008 102.262 130.28C102.107 130.547 101.907 130.757 101.662 130.912C101.422 131.067 101.134 131.144 100.798 131.144C100.462 131.144 100.171 131.067 99.9261 130.912C99.6807 130.757 99.4781 130.547 99.3181 130.28C99.1634 130.008 99.0487 129.693 98.9741 129.336C98.8994 128.973 98.8621 128.584 98.8621 128.168C98.8621 127.757 98.8994 127.371 98.9741 127.008C99.0487 126.645 99.1634 126.331 99.3181 126.064C99.4781 125.792 99.6807 125.579 99.9261 125.424C100.171 125.269 100.462 125.192 100.798 125.192ZM100.798 125.84C100.563 125.84 100.371 125.917 100.222 126.072C100.073 126.221 99.9554 126.413 99.8701 126.648C99.7901 126.877 99.7341 127.128 99.7021 127.4C99.6701 127.672 99.6541 127.928 99.6541 128.168C99.6541 128.408 99.6701 128.664 99.7021 128.936C99.7341 129.208 99.7901 129.459 99.8701 129.688C99.9554 129.917 100.073 130.109 100.222 130.264C100.371 130.413 100.563 130.488 100.798 130.488C101.027 130.488 101.214 130.413 101.358 130.264C101.507 130.109 101.625 129.917 101.71 129.688C101.795 129.459 101.854 129.208 101.886 128.936C101.918 128.664 101.934 128.408 101.934 128.168C101.934 127.928 101.918 127.672 101.886 127.4C101.854 127.128 101.795 126.877 101.71 126.648C101.625 126.413 101.507 126.221 101.358 126.072C101.214 125.917 101.027 125.84 100.798 125.84ZM105.556 125.192C105.892 125.192 106.18 125.269 106.42 125.424C106.665 125.579 106.865 125.792 107.02 126.064C107.18 126.331 107.297 126.645 107.372 127.008C107.447 127.371 107.484 127.757 107.484 128.168C107.484 128.584 107.447 128.973 107.372 129.336C107.297 129.693 107.18 130.008 107.02 130.28C106.865 130.547 106.665 130.757 106.42 130.912C106.18 131.067 105.892 131.144 105.556 131.144C105.22 131.144 104.929 131.067 104.684 130.912C104.439 130.757 104.236 130.547 104.076 130.28C103.921 130.008 103.807 129.693 103.732 129.336C103.657 128.973 103.62 128.584 103.62 128.168C103.62 127.757 103.657 127.371 103.732 127.008C103.807 126.645 103.921 126.331 104.076 126.064C104.236 125.792 104.439 125.579 104.684 125.424C104.929 125.269 105.22 125.192 105.556 125.192ZM105.556 125.84C105.321 125.84 105.129 125.917 104.98 126.072C104.831 126.221 104.713 126.413 104.628 126.648C104.548 126.877 104.492 127.128 104.46 127.4C104.428 127.672 104.412 127.928 104.412 128.168C104.412 128.408 104.428 128.664 104.46 128.936C104.492 129.208 104.548 129.459 104.628 129.688C104.713 129.917 104.831 130.109 104.98 130.264C105.129 130.413 105.321 130.488 105.556 130.488C105.785 130.488 105.972 130.413 106.116 130.264C106.265 130.109 106.383 129.917 106.468 129.688C106.553 129.459 106.612 129.208 106.644 128.936C106.676 128.664 106.692 128.408 106.692 128.168C106.692 127.928 106.676 127.672 106.644 127.4C106.612 127.128 106.553 126.877 106.468 126.648C106.383 126.413 106.265 126.221 106.116 126.072C105.972 125.917 105.785 125.84 105.556 125.84ZM108.482 131.264L107.914 131.072L110.37 125.064L110.938 125.272L108.482 131.264ZM114.001 131H113.225V126.28L112.153 127.176L111.697 126.64L113.305 125.336H114.001V131ZM118.111 125.192C118.447 125.192 118.735 125.269 118.975 125.424C119.22 125.579 119.42 125.792 119.575 126.064C119.735 126.331 119.852 126.645 119.927 127.008C120.001 127.371 120.039 127.757 120.039 128.168C120.039 128.584 120.001 128.973 119.927 129.336C119.852 129.693 119.735 130.008 119.575 130.28C119.42 130.547 119.22 130.757 118.975 130.912C118.735 131.067 118.447 131.144 118.111 131.144C117.775 131.144 117.484 131.067 117.239 130.912C116.993 130.757 116.791 130.547 116.631 130.28C116.476 130.008 116.361 129.693 116.287 129.336C116.212 128.973 116.175 128.584 116.175 128.168C116.175 127.757 116.212 127.371 116.287 127.008C116.361 126.645 116.476 126.331 116.631 126.064C116.791 125.792 116.993 125.579 117.239 125.424C117.484 125.269 117.775 125.192 118.111 125.192ZM118.111 125.84C117.876 125.84 117.684 125.917 117.535 126.072C117.385 126.221 117.268 126.413 117.183 126.648C117.103 126.877 117.047 127.128 117.015 127.4C116.983 127.672 116.967 127.928 116.967 128.168C116.967 128.408 116.983 128.664 117.015 128.936C117.047 129.208 117.103 129.459 117.183 129.688C117.268 129.917 117.385 130.109 117.535 130.264C117.684 130.413 117.876 130.488 118.111 130.488C118.34 130.488 118.527 130.413 118.671 130.264C118.82 130.109 118.937 129.917 119.023 129.688C119.108 129.459 119.167 129.208 119.199 128.936C119.231 128.664 119.247 128.408 119.247 128.168C119.247 127.928 119.231 127.672 119.199 127.4C119.167 127.128 119.108 126.877 119.023 126.648C118.937 126.413 118.82 126.221 118.671 126.072C118.527 125.917 118.34 125.84 118.111 125.84ZM122.868 125.192C123.204 125.192 123.492 125.269 123.732 125.424C123.978 125.579 124.178 125.792 124.332 126.064C124.492 126.331 124.61 126.645 124.684 127.008C124.759 127.371 124.796 127.757 124.796 128.168C124.796 128.584 124.759 128.973 124.684 129.336C124.61 129.693 124.492 130.008 124.332 130.28C124.178 130.547 123.978 130.757 123.732 130.912C123.492 131.067 123.204 131.144 122.868 131.144C122.532 131.144 122.242 131.067 121.996 130.912C121.751 130.757 121.548 130.547 121.388 130.28C121.234 130.008 121.119 129.693 121.044 129.336C120.97 128.973 120.932 128.584 120.932 128.168C120.932 127.757 120.97 127.371 121.044 127.008C121.119 126.645 121.234 126.331 121.388 126.064C121.548 125.792 121.751 125.579 121.996 125.424C122.242 125.269 122.532 125.192 122.868 125.192ZM122.868 125.84C122.634 125.84 122.442 125.917 122.292 126.072C122.143 126.221 122.026 126.413 121.94 126.648C121.86 126.877 121.804 127.128 121.772 127.4C121.74 127.672 121.724 127.928 121.724 128.168C121.724 128.408 121.74 128.664 121.772 128.936C121.804 129.208 121.86 129.459 121.94 129.688C122.026 129.917 122.143 130.109 122.292 130.264C122.442 130.413 122.634 130.488 122.868 130.488C123.098 130.488 123.284 130.413 123.428 130.264C123.578 130.109 123.695 129.917 123.78 129.688C123.866 129.459 123.924 129.208 123.956 128.936C123.988 128.664 124.004 128.408 124.004 128.168C124.004 127.928 123.988 127.672 123.956 127.4C123.924 127.128 123.866 126.877 123.78 126.648C123.695 126.413 123.578 126.221 123.428 126.072C123.284 125.917 123.098 125.84 122.868 125.84ZM127.626 125.192C127.962 125.192 128.25 125.269 128.49 125.424C128.736 125.579 128.936 125.792 129.09 126.064C129.25 126.331 129.368 126.645 129.442 127.008C129.517 127.371 129.554 127.757 129.554 128.168C129.554 128.584 129.517 128.973 129.442 129.336C129.368 129.693 129.25 130.008 129.09 130.28C128.936 130.547 128.736 130.757 128.49 130.912C128.25 131.067 127.962 131.144 127.626 131.144C127.29 131.144 127 131.067 126.754 130.912C126.509 130.757 126.306 130.547 126.146 130.28C125.992 130.008 125.877 129.693 125.802 129.336C125.728 128.973 125.69 128.584 125.69 128.168C125.69 127.757 125.728 127.371 125.802 127.008C125.877 126.645 125.992 126.331 126.146 126.064C126.306 125.792 126.509 125.579 126.754 125.424C127 125.269 127.29 125.192 127.626 125.192ZM127.626 125.84C127.392 125.84 127.2 125.917 127.05 126.072C126.901 126.221 126.784 126.413 126.698 126.648C126.618 126.877 126.562 127.128 126.53 127.4C126.498 127.672 126.482 127.928 126.482 128.168C126.482 128.408 126.498 128.664 126.53 128.936C126.562 129.208 126.618 129.459 126.698 129.688C126.784 129.917 126.901 130.109 127.05 130.264C127.2 130.413 127.392 130.488 127.626 130.488C127.856 130.488 128.042 130.413 128.186 130.264C128.336 130.109 128.453 129.917 128.538 129.688C128.624 129.459 128.682 129.208 128.714 128.936C128.746 128.664 128.762 128.408 128.762 128.168C128.762 127.928 128.746 127.672 128.714 127.4C128.682 127.128 128.624 126.877 128.538 126.648C128.453 126.413 128.336 126.221 128.186 126.072C128.042 125.917 127.856 125.84 127.626 125.84Z" fill="#8A939B"/>
<circle cx="15" cy="128" r="6" fill="#D0D3D7"/>
<rect x="24" y="124" width="48" height="8" rx="4" fill="#D0D3D7"/>
<rect x="9" y="138" width="83" height="6" rx="3" fill="#D0D3D7"/>
<rect x="103" y="148" width="27" height="6" rx="3" fill="#2D81FF" fill-opacity="0.15"/>
<rect x="9" y="148" width="45" height="6" rx="3" fill="#D0D3D7"/>
</svg>
