<svg width="137" height="176" viewBox="0 0 137 176" fill="none" xmlns="http://www.w3.org/2000/svg">
<rect x="0.5" y="0.5" width="136" height="175" rx="7.5" stroke="#D0D3D7" stroke-opacity="0.3"/>
<rect x="7" y="8" width="123" height="108" rx="8" fill="#FF4C4D" fill-opacity="0.12"/>
<path d="M115.412 19.1131L116 19.8571L116.588 19.1131C117.665 17.7509 119.413 18.1365 120.029 19.3461C120.323 19.9222 120.389 20.766 119.814 21.8132C119.26 22.8225 118.105 24.0169 116 25.2376C113.894 24.0169 112.74 22.8225 112.186 21.8132C111.611 20.766 111.677 19.9223 111.971 19.3461C112.587 18.1364 114.335 17.751 115.412 19.1131Z" fill="#EB5849" stroke="#EB5849" stroke-width="1.5"/>
<path d="M120.477 131H119.701V126.28L118.629 127.176L118.173 126.64L119.781 125.336H120.477V131ZM122.755 131.264L122.187 131.072L124.643 125.064L125.211 125.272L122.755 131.264ZM128.274 131H127.498V126.28L126.426 127.176L125.97 126.64L127.578 125.336H128.274V131Z" fill="#8A939B"/>
<circle cx="15" cy="128" r="6" fill="#D0D3D7"/>
<rect x="24" y="124" width="48" height="8" rx="4" fill="#D0D3D7"/>
<rect x="9" y="138" width="83" height="6" rx="3" fill="#D0D3D7"/>
<rect x="103" y="148" width="27" height="6" rx="3" fill="#2D81FF" fill-opacity="0.15"/>
<rect x="9" y="148" width="45" height="6" rx="3" fill="#D0D3D7"/>
</svg>
